<svg width="132" height="152" viewBox="0 0 132 152" fill="none" xmlns="http://www.w3.org/2000/svg">
<g clip-path="url(#clip0_24_44)">
<path d="M129.759 99.617C127.552 107.942 123.711 115.745 118.458 122.574C113.205 129.404 106.643 135.125 99.1536 139.405C96.2967 141.05 93.3212 142.482 90.2515 143.688C86.7608 145.057 83.1575 146.123 79.4817 146.874C69.4774 148.909 59.1305 148.58 49.2683 145.915C39.3862 143.29 30.2542 138.395 22.6036 131.622C19.795 129.131 17.2072 126.404 14.8692 123.47C12.8181 120.898 10.9607 118.178 9.31218 115.332C4.96634 107.88 2.14443 99.6454 1.00975 91.1041C-0.124926 82.5628 0.450175 73.8848 2.70174 65.5722C4.9081 57.2476 8.74906 49.4446 14.0024 42.615C19.2557 35.7853 25.817 30.0646 33.3066 25.7838C40.7732 21.4632 49.0274 18.6633 57.5918 17.5463C66.1561 16.4293 74.8604 17.0173 83.201 19.2763C84.7002 19.678 85.9788 20.6568 86.7558 21.9973C87.5327 23.3378 87.7443 24.9302 87.344 26.4243C86.9436 27.9184 85.9642 29.1917 84.6211 29.9641C83.278 30.7366 81.6812 30.9448 80.1821 30.5432C51.3843 22.8268 21.6976 39.898 14.0065 68.6013C8.82786 87.9284 14.926 107.676 28.25 120.868C32.463 125.05 37.3418 128.507 42.6875 131.098C45.7621 132.582 48.97 133.773 52.2683 134.655C55.5515 135.537 58.91 136.107 62.2995 136.36C68.2379 136.802 74.2071 136.256 79.9623 134.744C98.1063 129.983 113.264 115.929 118.444 96.5973C118.844 95.1032 119.824 93.8299 121.167 93.0575C122.51 92.2851 124.107 92.0768 125.606 92.4785C127.105 92.8781 128.384 93.8546 129.163 95.1931C129.941 96.5317 130.156 98.1229 129.759 99.617Z" fill="#212A35"/>
<path d="M115.168 90.1404C118.744 67.3167 105.78 44.947 84.1531 36.6161C83.5287 36.374 82.8605 36.2654 82.1918 36.2971C81.5231 36.3288 80.8688 36.5002 80.2712 36.8002C79.6736 37.1002 79.1461 37.5222 78.7228 38.0387C78.2995 38.5552 77.9899 39.1547 77.814 39.7986L67.5738 78.0156C67.4118 78.6202 67.371 79.2509 67.4539 79.8717C67.5368 80.4924 67.7416 81.091 68.0567 81.6331C68.3718 82.1752 68.7909 82.6501 69.2901 83.0308C69.7893 83.4114 70.3587 83.6902 70.9657 83.8513L109.227 94.0068C109.874 94.1774 110.55 94.2107 111.21 94.1046C111.871 93.9985 112.501 93.7554 113.061 93.391C113.621 93.0266 114.098 92.5491 114.461 91.9892C114.824 91.4292 115.065 90.7994 115.168 90.1404Z" fill="#F85A29"/>
<path d="M111.266 148.495C110.973 149.117 110.56 149.676 110.049 150.138C109.539 150.6 108.942 150.958 108.293 151.19C107.645 151.423 106.957 151.526 106.268 151.494C105.58 151.462 104.905 151.294 104.281 151.001C103.657 150.708 103.097 150.296 102.634 149.788C102.17 149.279 101.811 148.685 101.578 148.038C100.901 146.337 99.8858 144.791 98.5935 143.491C97.7229 142.615 96.7352 141.862 95.6582 141.254C99.0144 139.578 102.219 137.615 105.236 135.389C105.618 135.735 105.99 136.089 106.348 136.469C108.57 138.78 110.307 141.509 111.456 144.497C111.926 145.802 111.858 147.24 111.266 148.495Z" fill="#212A35"/>
<path d="M36.7703 141.242C35.6851 141.852 34.6902 142.609 33.814 143.491C32.5216 144.791 31.5065 146.337 30.8296 148.038C30.5969 148.685 30.2383 149.28 29.7743 149.788C29.3104 150.297 28.7502 150.709 28.1261 151.001C27.5028 151.294 26.8275 151.462 26.139 151.494C25.4505 151.527 24.7623 151.423 24.1141 151.19C23.4651 150.957 22.8686 150.6 22.3585 150.138C21.8484 149.675 21.4348 149.117 21.1414 148.495C20.5492 147.24 20.481 145.802 20.9518 144.497C22.1012 141.51 23.8377 138.781 26.0592 136.472C26.4244 136.091 26.8012 135.724 27.1898 135.373C30.2076 137.601 33.413 139.565 36.7703 141.242Z" fill="#212A35"/>
<path d="M0.0727328 27.0821C-0.0397763 27.7375 -0.0216055 28.4086 0.126193 29.0571C0.273992 29.7055 0.548535 30.3186 0.934129 30.8613C1.709 31.9553 2.88741 32.6986 4.21113 32.9282C5.54006 33.154 6.90459 32.8453 8.00542 32.0697C9.10478 31.2932 9.84985 30.1134 10.077 28.7897C10.2425 27.0259 10.7657 25.314 11.6148 23.7578C12.4618 22.2016 13.6163 20.8327 15.0088 19.7336C16.4015 18.6334 18.0037 17.8263 19.7184 17.3611C21.433 16.8949 23.2245 16.7798 24.985 17.0228C25.6426 17.1351 26.316 17.117 26.9667 16.9697C27.6173 16.8224 28.2325 16.5487 28.7769 16.1643C29.3221 15.7804 29.7859 15.2931 30.1417 14.7302C30.4976 14.1674 30.7386 13.5401 30.8508 12.8843C30.9633 12.2289 30.9451 11.5578 30.7973 10.9093C30.6495 10.2609 30.375 9.64781 29.9894 9.10513C29.6041 8.56216 29.115 8.10031 28.5503 7.74603C27.9856 7.39175 27.3562 7.15201 26.6984 7.04055C23.6245 6.58218 20.4897 6.74081 17.4783 7.50712C14.4662 8.27045 11.6373 9.62506 9.15704 11.4916C6.67655 13.3573 4.59478 15.6978 3.03374 18.3759C1.47106 21.0534 0.460391 24.0149 0.0610178 27.0867L0.0727328 27.0821Z" fill="#212A35"/>
<path d="M66.343 28.6941C64.791 28.6941 63.3026 28.0796 62.2052 26.9859C61.1077 25.8921 60.4912 24.4087 60.4912 22.8619V9.79797C60.4912 8.25119 61.1077 6.76777 62.2052 5.67403C63.3026 4.5803 64.791 3.96584 66.343 3.96584C67.895 3.96584 69.3834 4.5803 70.4808 5.67403C71.5783 6.76777 72.1948 8.25119 72.1948 9.79797V22.8619C72.1948 24.4087 71.5783 25.8921 70.4808 26.9859C69.3834 28.0796 67.895 28.6941 66.343 28.6941Z" fill="#212A35"/>
<path d="M50.1924 5.83213C50.1924 4.28535 50.8089 2.80193 51.9063 1.70819C53.0038 0.614454 54.4922 0 56.0442 0H78.0469C79.5989 0 81.0873 0.614454 82.1847 1.70819C83.2822 2.80193 83.8987 4.28535 83.8987 5.83213C83.8987 7.3789 83.2822 8.86233 82.1847 9.95607C81.0873 11.0498 79.5989 11.6643 78.0469 11.6643H56.0442C54.4922 11.6643 53.0038 11.0498 51.9063 9.95607C50.8089 8.86233 50.1924 7.3789 50.1924 5.83213Z" fill="#212A35"/>
</g>
<defs>
<clipPath id="clip0_24_44">
<rect width="132" height="151.5" fill="white"/>
</clipPath>
</defs>
</svg>
